<?xml version="1.0" encoding="UTF-8" standalone="no"?>
<!-- Created with Inkscape (http://www.inkscape.org/) -->

<svg
   width="210mm"
   height="210mm"
   viewBox="0 0 210 210"
   version="1.1"
   id="svg1"
   xml:space="preserve"
   inkscape:version="1.3 (0e150ed6c4, 2023-07-21)"
   sodipodi:docname="Logo chatbot.svg"
   inkscape:export-filename="Logo chatbot.svg"
   inkscape:export-xdpi="96"
   inkscape:export-ydpi="96"
   xmlns:inkscape="http://www.inkscape.org/namespaces/inkscape"
   xmlns:sodipodi="http://sodipodi.sourceforge.net/DTD/sodipodi-0.dtd"
   xmlns="http://www.w3.org/2000/svg"
   xmlns:svg="http://www.w3.org/2000/svg"><sodipodi:namedview
     id="namedview1"
     pagecolor="#ffffff"
     bordercolor="#000000"
     borderopacity="0.25"
     inkscape:showpageshadow="2"
     inkscape:pageopacity="0.0"
     inkscape:pagecheckerboard="0"
     inkscape:deskcolor="#d1d1d1"
     inkscape:document-units="mm"
     inkscape:zoom="0.65834034"
     inkscape:cx="353.92028"
     inkscape:cy="286.32607"
     inkscape:window-width="1920"
     inkscape:window-height="974"
     inkscape:window-x="-11"
     inkscape:window-y="-11"
     inkscape:window-maximized="1"
     inkscape:current-layer="g11" /><defs
     id="defs1"><inkscape:path-effect
       effect="bspline"
       id="path-effect4"
       is_visible="true"
       lpeversion="1.3"
       weight="33.333333"
       steps="2"
       helper_size="0"
       apply_no_weight="true"
       apply_with_weight="true"
       only_selected="false"
       uniform="false" /><inkscape:path-effect
       effect="bspline"
       id="path-effect3"
       is_visible="true"
       lpeversion="1.3"
       weight="33.333333"
       steps="2"
       helper_size="0"
       apply_no_weight="true"
       apply_with_weight="true"
       only_selected="false"
       uniform="false" /><clipPath
       id="clip0"><rect
         x="485"
         y="390"
         width="321"
         height="69"
         id="rect1" /></clipPath><clipPath
       id="clip1"><rect
         x="485"
         y="390"
         width="321"
         height="69"
         id="rect2" /></clipPath><clipPath
       id="clip2"><rect
         x="485"
         y="390"
         width="321"
         height="69"
         id="rect3" /></clipPath></defs><g
     inkscape:label="Capa 1"
     inkscape:groupmode="layer"
     id="layer1"><g
       transform="matrix(0.26458333,0,0,0.26458333,-63.210755,3.2197379)"
       id="g11"><path
         d="m 320.98778,414.31997 c 0,-38.06055 30.85511,-68.91566 68.91566,-68.91566 h 489.90635 c 38.06054,0 68.91566,30.85511 68.91566,68.91566 v 54.10286 c 0,38.06055 -30.85512,68.91566 -68.91566,68.91566 H 389.90344 c -38.06055,0 -68.91566,-30.85511 -68.91566,-68.91566 z"
         fill="#131921"
         fill-rule="evenodd"
         id="path3"
         style="stroke-width:1.12902" /><path
         d="m 635.98902,283.30796 c -8.73074,0 -15.80973,-7.07899 -15.80973,-15.80973 v -77.89592 c 0,-8.73075 7.07899,-15.80974 15.80973,-15.80974 h 12.4125 c 8.73075,0 15.80973,7.07899 15.80973,15.80974 v 77.89592 c 0,8.73074 -7.07898,15.80973 -15.80973,15.80973 z"
         fill="#131921"
         fill-rule="evenodd"
         id="path4"
         style="stroke-width:1.12902" /><path
         d="m 392.11633,294.5982 c 0,-40.53085 32.85574,-73.38659 73.3866,-73.38659 H 804.2103 c 40.53085,0 73.3866,32.85574 73.3866,73.38659 v 293.54639 c 0,40.52973 -32.85575,73.3866 -73.3866,73.3866 H 465.50293 c -40.53086,0 -73.3866,-32.85687 -73.3866,-73.3866 z"
         fill="#131921"
         fill-rule="evenodd"
         id="path5"
         style="stroke-width:1.12902" /><path
         d="m 582.92148,134.27671 c 0,-31.80123 26.28482,-57.580249 58.70928,-57.580249 32.42446,0 58.70928,25.779019 58.70928,57.580249 0,31.80124 -26.28482,57.58026 -58.70928,57.58026 -32.42446,0 -58.70928,-25.77902 -58.70928,-57.58026 z"
         fill="#131921"
         fill-rule="evenodd"
         id="path6"
         style="stroke-width:1.12902" /><path
         d="m 612.27612,133.14769 c 0,-15.58844 12.89008,-28.22562 28.79013,-28.22562 15.90005,0 28.79013,12.63718 28.79013,28.22562 0,15.58844 -12.89008,28.22561 -28.79013,28.22561 -15.90005,0 -28.79013,-12.63717 -28.79013,-28.22561 z"
         fill="#ffffff"
         fill-rule="evenodd"
         id="path7"
         style="stroke-width:1.12902" /><g
         clip-path="url(#clip0)"
         id="g10"
         transform="matrix(1.1290246,0,0,1.1290246,-87.71912,-37.335022)"><g
           clip-path="url(#clip1)"
           id="g9"><g
             clip-path="url(#clip2)"
             id="g8"><path
               d="M 621.144,458.177 C 580.982,453.982 537.816,436.418 503.686,410.396 494.881,403.68 485,394.193 485,392.455 c 0,-2.775 4.191,-1.369 21.511,7.215 29.542,14.642 56.224,24.083 83.882,29.684 20.406,4.131 31.416,5.318 56.913,6.131 36.159,1.149 68.923,-3.818 106.98,-16.215 8.039,-2.619 16.327,-4.766 18.417,-4.766 3.345,0 3.806,0.325 3.806,2.673 0,1.466 -0.979,3.647 -2.173,4.841 -8.255,8.255 -38.513,22.311 -61.897,28.759 -25.716,7.086 -64.332,10.219 -91.295,7.4 z m 158.88,-11.906 c 0.31,-1.319 2.563,-8.054 5.008,-14.967 5.121,-14.471 6.365,-22.643 3.935,-25.874 -1.486,-1.977 -3.066,-2.162 -21.181,-2.468 -10.768,-0.182 -19.941,-0.692 -20.39,-1.134 -1.501,-1.478 4.293,-5.643 11.667,-8.391 13.33,-4.962 39.98,-4.448 45.301,0.877 6.361,6.357 -2.827,35.15 -15.484,48.533 -5.847,6.183 -9.865,7.737 -8.856,3.424 z"
               fill="#f69401"
               id="path8" /></g></g></g></g></g></svg>
